<svg width="108" height="66" viewBox="0 0 108 66" fill="none" xmlns="http://www.w3.org/2000/svg">
<path d="M65.9542 33C65.9542 51.2254 51.1898 66 32.9771 66C14.7643 66 0 51.2254 0 33C0 14.7746 14.7643 0 32.9771 0C51.1898 0 65.9542 14.7746 65.9542 33Z" fill="#77FF77"/>
<path d="M108 33C108 51.2254 93.2356 66 75.0229 66C56.8102 66 42.0458 51.2254 42.0458 33C42.0458 14.7746 56.8102 0 75.0229 0C93.2356 0 108 14.7746 108 33Z" fill="#42CE42"/>
<path d="M54 58.426C61.3024 52.373 65.9542 43.2301 65.9542 33C65.9542 22.7699 61.3024 13.627 54 7.574C46.6976 13.627 42.0458 22.7699 42.0458 33C42.0458 43.2301 46.6976 52.373 54 58.426Z" fill="#52E652"/>
</svg>
