<svg width="220" height="100" viewBox="0 0 220 100" fill="none" xmlns="http://www.w3.org/2000/svg">
<rect x="5" y="5" width="210" height="90" rx="45" stroke="#77FF77" stroke-width="10"/>
<path d="M96.5444 61.63C98.1311 64.01 99.9977 65.9 102.144 67.3C104.291 68.7 106.764 69.4 109.564 69.4C111.711 69.4 113.578 68.91 115.164 67.93C116.751 66.95 118.011 65.62 118.944 63.94C119.878 62.26 120.344 60.37 120.344 58.27C120.344 56.2167 119.901 54.42 119.014 52.88C118.128 51.34 116.891 50.1267 115.304 49.24C113.764 48.3533 111.991 47.91 109.984 47.91C107.791 47.91 105.831 48.4 104.104 49.38C102.424 50.36 100.978 51.7367 99.7644 53.51L96.9644 53.3C97.4311 50.92 98.3177 48.8433 99.6244 47.07C100.931 45.2967 102.588 43.92 104.594 42.94C106.648 41.9133 108.958 41.4 111.524 41.4C114.791 41.4 117.684 42.1233 120.204 43.57C122.771 45.0167 124.754 47.0233 126.154 49.59C127.601 52.11 128.324 55.0033 128.324 58.27C128.324 61.7233 127.508 64.8033 125.874 67.51C124.288 70.2167 122.094 72.34 119.294 73.88C116.494 75.3733 113.321 76.12 109.774 76.12C105.948 76.12 102.471 75.3267 99.3444 73.74C96.2644 72.1533 93.5811 69.7967 91.2944 66.67L96.5444 61.63ZM125.314 31.46H99.3444L102.774 27.96L99.7644 53.51H92.7644L96.1944 24.95H125.314V31.46Z" fill="white"/>
</svg>
