<svg width="220" height="100" viewBox="0 0 220 100" fill="none" xmlns="http://www.w3.org/2000/svg">
<rect x="5" y="5" width="210" height="90" rx="45" stroke="#77FF77" stroke-width="10"/>
<path d="M126.672 75H92.442V68.49L110.782 51.76C113.349 49.38 115.285 47.21 116.592 45.25C117.899 43.2433 118.552 41.19 118.552 39.09C118.552 37.5033 118.179 36.0567 117.432 34.75C116.685 33.4433 115.635 32.4167 114.282 31.67C112.929 30.9233 111.365 30.55 109.592 30.55C107.119 30.55 104.809 31.25 102.662 32.65C100.562 34.0033 98.672 35.9867 96.992 38.6L91.742 33.49C94.0754 30.3167 96.7587 27.9133 99.792 26.28C102.825 24.6467 106.209 23.83 109.942 23.83C113.255 23.83 116.149 24.5067 118.622 25.86C121.095 27.1667 123.009 28.9867 124.362 31.32C125.715 33.6067 126.392 36.1967 126.392 39.09C126.392 41.2367 125.949 43.3133 125.062 45.32C124.175 47.28 122.845 49.2867 121.072 51.34C119.299 53.3933 117.035 55.6333 114.282 58.06C113.115 59.1333 111.832 60.2767 110.432 61.49C109.079 62.7033 107.725 63.9167 106.372 65.13C105.065 66.2967 103.782 67.4167 102.522 68.49H126.672V75Z" fill="white"/>
</svg>
