<svg width="220" height="100" viewBox="0 0 220 100" fill="none" xmlns="http://www.w3.org/2000/svg">
<rect x="5" y="5" width="210" height="90" rx="45" stroke="#77FF77" stroke-width="10"/>
<path d="M90.741 67.44L95.991 62.33C97.671 64.57 99.631 66.32 101.871 67.58C104.111 68.7933 106.608 69.4 109.361 69.4C112.581 69.4 115.171 68.6067 117.131 67.02C119.091 65.3867 120.071 63.2633 120.071 60.65C120.071 58.9233 119.604 57.4533 118.671 56.24C117.738 54.98 116.431 54.0233 114.751 53.37C113.118 52.67 111.251 52.32 109.151 52.32H104.461V45.74H109.151C110.971 45.74 112.604 45.4367 114.051 44.83C115.498 44.1767 116.618 43.29 117.411 42.17C118.251 41.05 118.671 39.7433 118.671 38.25C118.671 35.9167 117.831 34.05 116.151 32.65C114.518 31.25 112.348 30.55 109.641 30.55C107.074 30.55 104.764 31.18 102.711 32.44C100.704 33.6533 98.931 35.38 97.391 37.62L92.141 32.51C94.381 29.7567 96.9943 27.6333 99.981 26.14C103.014 24.6 106.304 23.83 109.851 23.83C113.211 23.83 116.151 24.46 118.671 25.72C121.238 26.9333 123.244 28.59 124.691 30.69C126.138 32.7433 126.861 35.0767 126.861 37.69C126.861 40.07 126.138 42.17 124.691 43.99C123.291 45.81 121.331 47.2567 118.811 48.33C116.291 49.3567 113.351 49.87 109.991 49.87L111.251 47.28C114.611 47.28 117.574 47.8633 120.141 49.03C122.708 50.1967 124.691 51.8067 126.091 53.86C127.538 55.9133 128.261 58.27 128.261 60.93C128.261 63.8233 127.468 66.4133 125.881 68.7C124.294 70.9867 122.101 72.8067 119.301 74.16C116.548 75.4667 113.304 76.12 109.571 76.12C105.791 76.12 102.291 75.3733 99.071 73.88C95.8976 72.34 93.121 70.1933 90.741 67.44Z" fill="white"/>
</svg>
